# xmcd
#
# Track frame offsets:
#	150
#	15765
#	29355
#	46605
#	62570
#	76575
#	89540
#	105790
#	119240
#	132810
#	146550
#	163120
#	177200
#	192950
#	205920
#	218050
#	232550
#	246545
#	262140
#	275065
#	290485
#
# Disc length: 4093 seconds
#
# Revision: 1
# Processed by: cddbd v1.5.2PL0 Copyright (c) Steve Scherf et al.
# Submitted via: audiograbber 1.83.01
#
DISCID=230ffb15
DTITLE=Anita Hirvonen - Maitolavan Prinsessa and Ei Itketä Lauantaina (531.586-2)
DYEAR=1996
DGENRE=Pop
TTITLE0=Maitolavan Prinsessa
TTITLE1=Rakkauden Ruusu
TTITLE2=Auta Alkuun Kyyneleet
TTITLE3=Käy Pöytään Vaan
TTITLE4=Kelpaako Seura?
TTITLE5=Hullut Haaveet
TTITLE6=Vielä Ja Vielä
TTITLE7=Suru Jäi Sydämeen
TTITLE8=Ei Kun Ei
TTITLE9=Poimi Minut Nyt
TTITLE10=Taas Täällä Oon
TTITLE11=Ei Itketä Lauantaina
TTITLE12=Yksin
TTITLE13=Itke Vaan Jos Helpottaa
TTITLE14=Alusta Mä Kaiken Alkaisin
TTITLE15=Tee Mitä Vaan
TTITLE16=Hymyillen
TTITLE17=Rakkaus Graniittimme On
TTITLE18=Se Eikö Todista Että Muutuin
TTITLE19=Mama Loo
TTITLE20=Olet Aina Mielessäin
EXTD=TR.
EXTT0=
EXTT1=
EXTT2=
EXTT3=
EXTT4=
EXTT5=
EXTT6=
EXTT7=
EXTT8=
EXTT9=
EXTT10=
EXTT11=
EXTT12=
EXTT13=
EXTT14=
EXTT15=
EXTT16=
EXTT17=
EXTT18=
EXTT19=
EXTT20=
PLAYORDER=
